<mxfile host="app.diagrams.net" modified="2022-09-21T19:12:58.021Z" agent="5.0 (Windows NT 10.0; Win64; x64) AppleWebKit/537.36 (KHTML, like Gecko) Chrome/105.0.0.0 Safari/537.36" etag="bGOpFZPAUSBarmKQVOHM" version="20.3.3" type="github">
  <diagram id="ZoijWgZR32y4va5hffM9" name="Page-1">
    <mxGraphModel dx="1006" dy="677" grid="1" gridSize="10" guides="1" tooltips="1" connect="1" arrows="1" fold="1" page="1" pageScale="1" pageWidth="850" pageHeight="1100" math="0" shadow="0">
      <root>
        <mxCell id="0" />
        <mxCell id="1" parent="0" />
        <mxCell id="94rV8oXowhxHJuVNh93p-21" value="" style="strokeWidth=2;html=1;shape=mxgraph.flowchart.annotation_2;align=left;labelPosition=right;pointerEvents=1;rotation=90;" vertex="1" parent="1">
          <mxGeometry x="545" y="290" width="50" height="100" as="geometry" />
        </mxCell>
        <mxCell id="94rV8oXowhxHJuVNh93p-13" value="" style="strokeWidth=2;html=1;shape=mxgraph.flowchart.annotation_2;align=left;labelPosition=right;pointerEvents=1;rotation=90;" vertex="1" parent="1">
          <mxGeometry x="235" y="360" width="50" height="100" as="geometry" />
        </mxCell>
        <mxCell id="94rV8oXowhxHJuVNh93p-3" value="" style="strokeWidth=2;html=1;shape=mxgraph.flowchart.annotation_2;align=left;labelPosition=right;pointerEvents=1;rotation=90;" vertex="1" parent="1">
          <mxGeometry x="155" y="260" width="50" height="100" as="geometry" />
        </mxCell>
        <mxCell id="UEzdxqP7-3Au7_6uFxmp-8" value="" style="strokeWidth=2;html=1;shape=mxgraph.flowchart.annotation_2;align=left;labelPosition=right;pointerEvents=1;rotation=90;" parent="1" vertex="1">
          <mxGeometry x="225" y="160" width="50" height="100" as="geometry" />
        </mxCell>
        <mxCell id="UEzdxqP7-3Au7_6uFxmp-2" value="Live Sports - Flow" style="text;strokeColor=none;fillColor=none;html=1;fontSize=24;fontStyle=1;verticalAlign=middle;align=center;" parent="1" vertex="1">
          <mxGeometry x="370" y="10" width="100" height="40" as="geometry" />
        </mxCell>
        <mxCell id="UEzdxqP7-3Au7_6uFxmp-7" value="Admin logs onto panel" style="rounded=1;whiteSpace=wrap;html=1;fillColor=#dae8fc;strokeColor=#6c8ebf;" parent="1" vertex="1">
          <mxGeometry x="190" y="130" width="120" height="60" as="geometry" />
        </mxCell>
        <mxCell id="UEzdxqP7-3Au7_6uFxmp-9" value="Admin edits an existing game&#39;s score/settings" style="rounded=1;whiteSpace=wrap;html=1;fillColor=#dae8fc;strokeColor=#6c8ebf;" parent="1" vertex="1">
          <mxGeometry x="120" y="230" width="120" height="60" as="geometry" />
        </mxCell>
        <mxCell id="94rV8oXowhxHJuVNh93p-8" style="edgeStyle=orthogonalEdgeStyle;rounded=0;orthogonalLoop=1;jettySize=auto;html=1;entryX=0.227;entryY=0.52;entryDx=0;entryDy=0;entryPerimeter=0;" edge="1" parent="1" source="UEzdxqP7-3Au7_6uFxmp-10" target="94rV8oXowhxHJuVNh93p-21">
          <mxGeometry relative="1" as="geometry">
            <mxPoint x="560" y="320" as="targetPoint" />
            <Array as="points">
              <mxPoint x="570" y="260" />
              <mxPoint x="570" y="320" />
              <mxPoint x="568" y="320" />
            </Array>
          </mxGeometry>
        </mxCell>
        <mxCell id="UEzdxqP7-3Au7_6uFxmp-10" value="Admin Creates a new game" style="whiteSpace=wrap;html=1;fillColor=#dae8fc;strokeColor=#6c8ebf;" parent="1" vertex="1">
          <mxGeometry x="260" y="230" width="120" height="60" as="geometry" />
        </mxCell>
        <mxCell id="UEzdxqP7-3Au7_6uFxmp-17" value="" style="whiteSpace=wrap;html=1;aspect=fixed;fontSize=15;" parent="1" vertex="1">
          <mxGeometry width="170" height="170" as="geometry" />
        </mxCell>
        <mxCell id="UEzdxqP7-3Au7_6uFxmp-5" value="Admin" style="text;html=1;align=center;verticalAlign=middle;resizable=0;points=[];autosize=1;strokeColor=#6c8ebf;fillColor=#dae8fc;" parent="1" vertex="1">
          <mxGeometry x="10" y="30" width="60" height="30" as="geometry" />
        </mxCell>
        <mxCell id="UEzdxqP7-3Au7_6uFxmp-18" value="Key:" style="text;html=1;align=center;verticalAlign=middle;resizable=0;points=[];autosize=1;strokeColor=none;fillColor=none;fontSize=15;" parent="1" vertex="1">
          <mxGeometry width="50" height="30" as="geometry" />
        </mxCell>
        <mxCell id="94rV8oXowhxHJuVNh93p-40" style="edgeStyle=orthogonalEdgeStyle;rounded=0;orthogonalLoop=1;jettySize=auto;html=1;entryX=0;entryY=0.5;entryDx=0;entryDy=0;" edge="1" parent="1" source="94rV8oXowhxHJuVNh93p-1" target="UEzdxqP7-3Au7_6uFxmp-9">
          <mxGeometry relative="1" as="geometry" />
        </mxCell>
        <mxCell id="94rV8oXowhxHJuVNh93p-1" value="Website live updates score via a WebSocket." style="whiteSpace=wrap;html=1;fillColor=#d5e8d4;strokeColor=#82b366;rounded=1;" vertex="1" parent="1">
          <mxGeometry x="50" y="330" width="120" height="60" as="geometry" />
        </mxCell>
        <mxCell id="94rV8oXowhxHJuVNh93p-5" value="User - Web" style="text;html=1;align=center;verticalAlign=middle;resizable=0;points=[];autosize=1;strokeColor=#82b366;fillColor=#d5e8d4;" vertex="1" parent="1">
          <mxGeometry x="10" y="70" width="80" height="30" as="geometry" />
        </mxCell>
        <mxCell id="94rV8oXowhxHJuVNh93p-11" value="User - Mobile&lt;sup&gt;1&lt;/sup&gt;" style="text;html=1;align=center;verticalAlign=middle;resizable=0;points=[];autosize=1;strokeColor=#d6b656;fillColor=#fff2cc;" vertex="1" parent="1">
          <mxGeometry x="5" y="110" width="100" height="30" as="geometry" />
        </mxCell>
        <mxCell id="94rV8oXowhxHJuVNh93p-12" value="User is subscribed to that sport" style="rounded=0;whiteSpace=wrap;html=1;fillColor=#fff2cc;strokeColor=#d6b656;" vertex="1" parent="1">
          <mxGeometry x="200" y="330" width="120" height="60" as="geometry" />
        </mxCell>
        <mxCell id="94rV8oXowhxHJuVNh93p-38" style="edgeStyle=orthogonalEdgeStyle;rounded=0;orthogonalLoop=1;jettySize=auto;html=1;entryX=0;entryY=0.5;entryDx=0;entryDy=0;" edge="1" parent="1" source="94rV8oXowhxHJuVNh93p-14" target="UEzdxqP7-3Au7_6uFxmp-9">
          <mxGeometry relative="1" as="geometry">
            <Array as="points">
              <mxPoint x="20" y="460" />
              <mxPoint x="20" y="260" />
            </Array>
          </mxGeometry>
        </mxCell>
        <mxCell id="94rV8oXowhxHJuVNh93p-14" value="If app is closed: App will push a notification of the new score&lt;sup&gt;2&lt;/sup&gt;" style="rounded=1;whiteSpace=wrap;html=1;fillColor=#fff2cc;strokeColor=#d6b656;" vertex="1" parent="1">
          <mxGeometry x="130" y="430" width="120" height="60" as="geometry" />
        </mxCell>
        <mxCell id="94rV8oXowhxHJuVNh93p-41" style="edgeStyle=orthogonalEdgeStyle;rounded=0;orthogonalLoop=1;jettySize=auto;html=1;" edge="1" parent="1" source="94rV8oXowhxHJuVNh93p-15">
          <mxGeometry relative="1" as="geometry">
            <mxPoint x="20" y="460" as="targetPoint" />
            <Array as="points">
              <mxPoint x="345" y="510" />
              <mxPoint x="60" y="510" />
            </Array>
          </mxGeometry>
        </mxCell>
        <mxCell id="94rV8oXowhxHJuVNh93p-15" value="If app is open: A websocket will update the score on the app.&amp;nbsp;" style="rounded=0;whiteSpace=wrap;html=1;fillColor=#fff2cc;strokeColor=#d6b656;" vertex="1" parent="1">
          <mxGeometry x="285" y="430" width="120" height="60" as="geometry" />
        </mxCell>
        <mxCell id="94rV8oXowhxHJuVNh93p-16" value="" style="strokeWidth=2;html=1;shape=mxgraph.flowchart.annotation_2;align=left;labelPosition=right;pointerEvents=1;rotation=90;" vertex="1" parent="1">
          <mxGeometry x="610" y="380" width="50" height="100" as="geometry" />
        </mxCell>
        <mxCell id="94rV8oXowhxHJuVNh93p-17" value="Website live updates score via a WebSocket." style="whiteSpace=wrap;html=1;fillColor=#d5e8d4;strokeColor=#82b366;rounded=1;" vertex="1" parent="1">
          <mxGeometry x="390" y="510" width="120" height="62" as="geometry" />
        </mxCell>
        <mxCell id="94rV8oXowhxHJuVNh93p-18" value="User is subscribed to that sport" style="rounded=0;whiteSpace=wrap;html=1;fillColor=#fff2cc;strokeColor=#d6b656;" vertex="1" parent="1">
          <mxGeometry x="575" y="350" width="120" height="60" as="geometry" />
        </mxCell>
        <mxCell id="94rV8oXowhxHJuVNh93p-33" style="edgeStyle=orthogonalEdgeStyle;rounded=0;orthogonalLoop=1;jettySize=auto;html=1;entryX=1;entryY=0.5;entryDx=0;entryDy=0;" edge="1" parent="1" source="94rV8oXowhxHJuVNh93p-19" target="94rV8oXowhxHJuVNh93p-30">
          <mxGeometry relative="1" as="geometry">
            <Array as="points">
              <mxPoint x="670" y="680" />
              <mxPoint x="670" y="580" />
            </Array>
          </mxGeometry>
        </mxCell>
        <mxCell id="94rV8oXowhxHJuVNh93p-19" value="App will push a notification of the new score&lt;sup&gt;2&lt;/sup&gt;" style="rounded=1;whiteSpace=wrap;html=1;fillColor=#fff2cc;strokeColor=#d6b656;" vertex="1" parent="1">
          <mxGeometry x="530" y="650" width="120" height="60" as="geometry" />
        </mxCell>
        <mxCell id="94rV8oXowhxHJuVNh93p-20" value="If app is open: A websocket will update the score on the app.&amp;nbsp;" style="rounded=0;whiteSpace=wrap;html=1;fillColor=#fff2cc;strokeColor=#d6b656;" vertex="1" parent="1">
          <mxGeometry x="670" y="450" width="120" height="60" as="geometry" />
        </mxCell>
        <mxCell id="94rV8oXowhxHJuVNh93p-31" style="edgeStyle=orthogonalEdgeStyle;rounded=0;orthogonalLoop=1;jettySize=auto;html=1;" edge="1" parent="1" source="94rV8oXowhxHJuVNh93p-29" target="94rV8oXowhxHJuVNh93p-30">
          <mxGeometry relative="1" as="geometry" />
        </mxCell>
        <mxCell id="94rV8oXowhxHJuVNh93p-29" value="If the app is closed:&lt;br&gt;App will sent a notification that the game is starting." style="rounded=0;whiteSpace=wrap;html=1;fillColor=#fff2cc;strokeColor=#d6b656;" vertex="1" parent="1">
          <mxGeometry x="530" y="450" width="120" height="60" as="geometry" />
        </mxCell>
        <mxCell id="94rV8oXowhxHJuVNh93p-32" style="edgeStyle=orthogonalEdgeStyle;rounded=0;orthogonalLoop=1;jettySize=auto;html=1;" edge="1" parent="1" source="94rV8oXowhxHJuVNh93p-30" target="94rV8oXowhxHJuVNh93p-19">
          <mxGeometry relative="1" as="geometry" />
        </mxCell>
        <mxCell id="94rV8oXowhxHJuVNh93p-35" style="edgeStyle=orthogonalEdgeStyle;rounded=0;orthogonalLoop=1;jettySize=auto;html=1;entryX=1;entryY=0.5;entryDx=0;entryDy=0;" edge="1" parent="1" source="94rV8oXowhxHJuVNh93p-30" target="94rV8oXowhxHJuVNh93p-20">
          <mxGeometry relative="1" as="geometry" />
        </mxCell>
        <mxCell id="94rV8oXowhxHJuVNh93p-56" style="edgeStyle=orthogonalEdgeStyle;rounded=0;orthogonalLoop=1;jettySize=auto;html=1;entryX=0.5;entryY=1;entryDx=0;entryDy=0;fontSize=24;" edge="1" parent="1" source="94rV8oXowhxHJuVNh93p-30" target="94rV8oXowhxHJuVNh93p-17">
          <mxGeometry relative="1" as="geometry" />
        </mxCell>
        <mxCell id="94rV8oXowhxHJuVNh93p-30" value="Admin edits an existing game&#39;s score/settings" style="rounded=1;whiteSpace=wrap;html=1;fillColor=#dae8fc;strokeColor=#6c8ebf;" vertex="1" parent="1">
          <mxGeometry x="530" y="550" width="120" height="60" as="geometry" />
        </mxCell>
        <mxCell id="94rV8oXowhxHJuVNh93p-50" value="Notation" style="swimlane;fontStyle=0;childLayout=stackLayout;horizontal=1;startSize=30;horizontalStack=0;resizeParent=1;resizeParentMax=0;resizeLast=0;collapsible=1;marginBottom=0;fontSize=24;" vertex="1" parent="1">
          <mxGeometry x="35" y="620" width="215" height="90" as="geometry" />
        </mxCell>
        <mxCell id="94rV8oXowhxHJuVNh93p-51" value="1. Mobile application has not been&#xa; developed yet" style="text;strokeColor=none;fillColor=none;align=left;verticalAlign=middle;spacingLeft=4;spacingRight=4;overflow=hidden;points=[[0,0.5],[1,0.5]];portConstraint=eastwest;rotatable=0;fontSize=12;" vertex="1" parent="94rV8oXowhxHJuVNh93p-50">
          <mxGeometry y="30" width="215" height="30" as="geometry" />
        </mxCell>
        <mxCell id="94rV8oXowhxHJuVNh93p-52" value="2. In the future we will use apple&#39;s new&#xa;live score notification feature." style="text;strokeColor=none;fillColor=none;align=left;verticalAlign=middle;spacingLeft=4;spacingRight=4;overflow=hidden;points=[[0,0.5],[1,0.5]];portConstraint=eastwest;rotatable=0;fontSize=12;" vertex="1" parent="94rV8oXowhxHJuVNh93p-50">
          <mxGeometry y="60" width="215" height="30" as="geometry" />
        </mxCell>
        <mxCell id="94rV8oXowhxHJuVNh93p-55" style="edgeStyle=orthogonalEdgeStyle;rounded=0;orthogonalLoop=1;jettySize=auto;html=1;exitX=0.5;exitY=1;exitDx=0;exitDy=0;fontSize=24;" edge="1" parent="1" source="94rV8oXowhxHJuVNh93p-54" target="94rV8oXowhxHJuVNh93p-17">
          <mxGeometry relative="1" as="geometry" />
        </mxCell>
        <mxCell id="94rV8oXowhxHJuVNh93p-54" value="Website shows this new game." style="whiteSpace=wrap;html=1;fillColor=#d5e8d4;strokeColor=#82b366;rounded=1;" vertex="1" parent="1">
          <mxGeometry x="420" y="360" width="120" height="62" as="geometry" />
        </mxCell>
      </root>
    </mxGraphModel>
  </diagram>
</mxfile>
